<?xml version="1.0" encoding="UTF-8" standalone="no"?>
<!DOCTYPE svg PUBLIC "-//W3C//DTD SVG 1.1//EN" "http://www.w3.org/Graphics/SVG/1.1/DTD/svg11.dtd">
<svg width="100%" height="100%" viewBox="0 0 1225 1227" version="1.1" xmlns="http://www.w3.org/2000/svg" xmlns:xlink="http://www.w3.org/1999/xlink" xml:space="preserve" xmlns:serif="http://www.serif.com/" style="fill-rule:evenodd;clip-rule:evenodd;stroke-linecap:round;stroke-linejoin:round;stroke-miterlimit:1.5;">
    <rect width="100%" height="100%" fill="white"/>
    <g transform="matrix(1,0,0,1,-705,-1672)">
        <g>
            <g transform="matrix(1.096303,0,0,1.096303,913.927092,-426.141187)">
                <g transform="matrix(1,0,0,1,-950,928)">
                    <path d="M1342,1500L1340,1526C1340,1526 1324.885,1499.404 1328,1486C1331.115,1472.596 1316.114,1517.034 1324,1524C1324,1524 1303.755,1506.006 1308,1486L1290,1512C1290,1512 1254.972,1415.199 1357,1401L1357,1382L1396,1427L1396,1440L1407,1453L1408,1483L1387,1459C1387,1459 1359.593,1442.123 1355,1469C1350.407,1495.877 1375.673,1512.181 1382,1516C1382,1516 1421.797,1541.75 1503,1499C1503,1499 1630.225,1435.219 1665,1398C1665,1398 1663.564,1457.615 1627,1485C1627,1485 1588.347,1523.551 1533,1524C1533,1524 1584.961,1524.168 1627,1485C1627,1485 1611.562,1539.062 1561,1555L1458,1587L1561,1555C1561,1555 1554.758,1607.143 1476,1617C1476,1617 1333.28,1622.501 1315,1668L1345,1684L1339,1702L1308,1682L1269,1769C1269,1769 1296.759,1786.488 1341,1760L1338,1752L1383,1722L1354,1782L1347,1774C1347,1774 1291.257,1819.612 1256,1798L1233,1820L1232,1788C1232,1788 1188.12,1754.369 1197,1699L1185,1702L1207,1644L1217,1691L1208,1696C1208,1696 1216.385,1753.785 1250,1766C1250,1766 1331.992,1572.394 1250,1507C1250,1507 1126.102,1459.743 1002,1318C1002,1318 978.322,1426.783 1115,1461C1115,1461 1046.967,1441.55 1029.878,1414.538C1029.878,1414.538 1022.062,1501.336 1179,1533C1179,1533 1103.132,1518.107 1080.11,1495.199C1080.11,1495.199 1074.374,1542.612 1128,1563C1128,1563 1208.599,1580.5 1216,1596" style="fill:rgb(235,235,235);fill-opacity:0;stroke:rgb(136,69,130);stroke-width:5.7px;"/>
                </g>
                <g transform="matrix(1,0,0,1,-946,924)">
                    <path d="M1364,1420L1366,1412L1387,1436L1358,1426L1364,1420Z" style="fill:rgb(97,36,92);stroke:black;stroke-opacity:0;stroke-width:5.7px;"/>
                </g>
            </g>
            <g transform="matrix(1,0,0,1,-108,-121)">
                <path d="M1425.5,1793C1763.548,1793 2038,2067.9 2038,2406.5C2038,2745.1 1763.548,3020 1425.5,3020C1087.452,3020 813,2745.1 813,2406.5C813,2067.9 1087.452,1793 1425.5,1793ZM1425.5,1837.465C1739.047,1837.465 1993.607,2092.441 1993.607,2406.5C1993.607,2720.559 1739.047,2975.535 1425.5,2975.535C1111.953,2975.535 857.393,2720.559 857.393,2406.5C857.393,2092.441 1111.953,1837.465 1425.5,1837.465Z" style="fill:rgb(97,36,92);"/>
            </g>
        </g>
    </g>
</svg>
